<?xml version="1.0" encoding="UTF-8"?>
<svg id="Layer_1" data-name="Layer 1" xmlns="http://www.w3.org/2000/svg" viewBox="0 0 300 300">
  <defs>
    <style>
      .cls-1 {
        fill: #00285e;
      }

      .cls-2 {
        fill: #fff;
      }

      .cls-3 {
        fill: #b2cfed;
      }

      .cls-4 {
        fill: #dca369;
      }

      .cls-5 {
        fill: #092264;
      }

      .cls-6 {
        fill: #6caddf;
      }
    </style>
  </defs>
  <g>
    <circle class="cls-1" cx="150" cy="150" r="149" transform="translate(-22.46 26.48) rotate(-9.39)"/>
    <path class="cls-4" d="m150,7.1C71.21,7.1,7.1,71.21,7.1,150s64.1,142.9,142.9,142.9,142.9-64.1,142.9-142.9S228.79,7.1,150,7.1Zm0,282.69c-77.08,0-139.8-62.71-139.8-139.8S72.92,10.2,150,10.2s139.8,62.71,139.8,139.8-62.71,139.8-139.8,139.8Z"/>
    <circle class="cls-2" cx="150" cy="150" r="133.5"/>
    <circle class="cls-1" cx="150" cy="150" r="100.31" transform="translate(-62.13 150) rotate(-45)"/>
    <circle class="cls-2" cx="150" cy="150" r="94.01" transform="translate(-62.13 150) rotate(-45)"/>
    <g>
      <path class="cls-1" d="m55.44,66.54l3.08-3.02,8.8,2.14-1.97-8.84,3.08-3.02,12.73,12.98-2.84,2.78-8.31-8.48,1.78,9.13-.07.07-9-1.94,8.26,8.42-2.8,2.75-12.73-12.98Z"/>
      <path class="cls-1" d="m80.7,57.37l-5.65-8.72,3.36-2.18,5.59,8.64c1.61,2.49,3.69,2.97,5.74,1.64,2.05-1.33,2.49-3.38.92-5.8l-5.66-8.74,3.36-2.18,5.58,8.61c2.99,4.62,1.87,8.57-2.23,11.23-4.1,2.66-8.09,1.99-11-2.5Z"/>
      <path class="cls-1" d="m95.76,36.1l4.02-1.57,7.25,5.42,1.65-8.9,4.02-1.57,6.62,16.94-3.7,1.45-4.32-11.06-1.94,9.1-.1.04-7.52-5.32,4.29,10.99-3.65,1.43-6.62-16.94Z"/>
      <path class="cls-1" d="m121,27.35l8.32-1.46c2.05-.36,3.76-.08,4.96.76.96.67,1.55,1.6,1.76,2.83v.05c.36,2.02-.51,3.34-1.67,4.28,2.21.43,3.7,1.41,4.13,3.81v.05c.58,3.27-1.79,5.38-5.83,6.09l-8.52,1.5-3.15-17.91Zm8.74,5.93c1.74-.31,2.74-1.06,2.51-2.39v-.05c-.22-1.18-1.25-1.68-2.92-1.39l-3.89.68.67,3.79,3.63-.64Zm2.32,7.03c1.74-.31,2.68-1.1,2.45-2.43v-.05c-.22-1.2-1.25-1.79-3.27-1.43l-4.55.8.69,3.94,4.68-.82Z"/>
      <path class="cls-1" d="m149.3,24.04l3.69.06,7.5,18.44-4.18-.07-1.6-4.11-7.69-.12-1.73,4.05-4.08-.07,8.09-18.19Zm4.04,10.77l-2.32-5.94-2.51,5.86,4.83.08Z"/>
      <path class="cls-1" d="m166.52,25.26l3.96.58-2.65,18-3.96-.58,2.65-18Z"/>
      <path class="cls-1" d="m183.99,38.07l.02-.05c1.85-4.83,7-7.39,12.22-5.4,3.2,1.23,4.71,3.03,5.7,5.18l-3.43,1.83c-.86-1.69-1.91-2.93-3.61-3.58-2.86-1.1-5.84.49-6.95,3.41l-.02.05c-1.11,2.91-.03,6.11,2.89,7.22,1.94.74,3.43.42,5.23-.28l1.46,3.31c-2.46,1.2-4.85,1.62-8.13.37-5-1.91-7.24-7.19-5.37-12.07Z"/>
      <path class="cls-1" d="m208.34,38.5l3.52,1.91-8.7,15.98-3.51-1.91,8.7-15.98Z"/>
      <path class="cls-1" d="m219.26,49.39l-4.5-3.22,2.14-3,12.27,8.76-2.14,3-4.5-3.22-8.43,11.8-3.26-2.33,8.43-11.8Z"/>
      <path class="cls-1" d="m230.5,68.15l2.96-12.7,3.28,3.34-2.17,8.21,8.3-1.96,3.18,3.24-12.7,2.68-5.17,5.08-2.8-2.85,5.12-5.02Z"/>
    </g>
    <g>
      <path class="cls-1" d="m70.16,225.72l7.46,7.22-1.9,1.96-5.31-5.14-2.02,2.09,4.68,4.53-1.9,1.96-4.68-4.53-3.67,3.79-2.16-2.09,9.49-9.8Z"/>
      <path class="cls-1" d="m75.2,239.99l.02-.03c2.29-3.13,6.64-3.88,10.04-1.39,3.4,2.49,3.98,6.81,1.69,9.94l-.02.03c-2.29,3.13-6.64,3.88-10.04,1.39-3.4-2.49-3.98-6.81-1.69-9.94Zm9.17,6.72l.02-.03c1.38-1.89,1.15-4.47-.8-5.9-1.95-1.43-4.43-.88-5.81,1.01l-.02.03c-1.38,1.89-1.15,4.47.8,5.9,1.95,1.43,4.43.88,5.81-1.01Z"/>
      <path class="cls-1" d="m90.12,250.56l.02-.03c1.78-3.45,5.95-4.87,9.69-2.94,3.74,1.93,4.99,6.1,3.21,9.55l-.02.03c-1.78,3.45-5.95,4.87-9.69,2.94-3.74-1.93-4.99-6.1-3.21-9.55Zm10.1,5.21l.02-.03c1.07-2.08.44-4.6-1.71-5.7-2.15-1.11-4.51-.18-5.58,1.9l-.02.03c-1.07,2.08-.44,4.6,1.71,5.7,2.15,1.11,4.51.18,5.58-1.9Z"/>
      <path class="cls-1" d="m111.09,255.82l-3.91-1.38.92-2.61,10.66,3.76-.92,2.61-3.91-1.38-3.62,10.25-2.83-1,3.62-10.25Z"/>
      <path class="cls-1" d="m121.61,256.38l6.19,1.32c1.52.33,2.64,1,3.23,1.93.48.74.63,1.55.43,2.46v.04c-.33,1.51-1.31,2.17-2.38,2.5,1.42.92,2.18,2.02,1.79,3.81v.04c-.53,2.44-2.77,3.23-5.78,2.59l-6.35-1.36,2.85-13.34Zm4.04,12.12c1.3.28,2.18-.01,2.39-1v-.04c.2-.9-.35-1.59-1.85-1.91l-3.39-.73-.63,2.93,3.49.75Zm.37-5.54c1.3.28,2.21.03,2.42-.96v-.04c.2-.88-.38-1.52-1.62-1.78l-2.9-.62-.6,2.82,2.71.58Z"/>
      <path class="cls-1" d="m140.64,259.45l2.76.2,4.85,14.13-3.13-.23-1.02-3.14-5.75-.41-1.46,2.96-3.05-.22,6.82-13.29Zm2.57,8.24l-1.49-4.54-2.13,4.28,3.62.26Z"/>
      <path class="cls-1" d="m152.03,260.01l3-.17.62,10.89,6.79-.39.16,2.72-9.78.56-.78-13.62Z"/>
      <path class="cls-1" d="m164.79,259.04l2.96-.52,1.88,10.75,6.7-1.17.47,2.69-9.65,1.69-2.35-13.43Z"/>
      <path class="cls-1" d="m186.19,261.26v-.04c-1.41-3.62.18-7.63,4.09-9.14,2.4-.92,4.15-.68,5.78.03l-.99,2.74c-1.33-.51-2.54-.67-3.81-.18-2.15.83-3.01,3.2-2.17,5.39v.04c.85,2.18,3.06,3.42,5.25,2.58,1.46-.56,2.12-1.49,2.77-2.78l2.48,1.11c-.77,1.9-1.89,3.34-4.35,4.28-3.75,1.44-7.64-.38-9.05-4.03Z"/>
      <path class="cls-1" d="m198.25,248.91l2.64-1.43,5.18,9.6,5.98-3.23,1.3,2.4-8.63,4.66-6.48-12Z"/>
      <path class="cls-1" d="m213.66,249.23l-4.54-6.34,2.44-1.75,4.49,6.28c1.29,1.81,2.87,2.09,4.36,1.03,1.49-1.07,1.75-2.62.49-4.38l-4.55-6.35,2.44-1.75,4.48,6.26c2.41,3.36,1.7,6.36-1.28,8.49-2.98,2.13-5.99,1.77-8.33-1.49Z"/>
      <path class="cls-1" d="m221.89,233.35l4.59-4.37c1.13-1.08,2.31-1.61,3.42-1.59.88.02,1.63.36,2.28,1.03l.03.03c1.06,1.11,1.06,2.3.73,3.37,1.56-.65,2.9-.66,4.16.67l.03.03c1.72,1.81,1.11,4.11-1.12,6.23l-4.7,4.48-9.41-9.88Zm7.92.07c.96-.91,1.27-1.8.57-2.54l-.03-.03c-.62-.65-1.48-.53-2.39.34l-2.14,2.04,1.99,2.09,2-1.91Zm4.37,3.43c.96-.91,1.22-1.8.52-2.54l-.03-.03c-.63-.66-1.52-.6-2.63.46l-2.51,2.39,2.07,2.17,2.58-2.46Z"/>
    </g>
    <g>
      <g>
        <path class="cls-1" d="m217.53,205.91H82.47c2.85,3.43,5.95,6.64,9.28,9.6h116.51c3.33-2.96,6.43-6.17,9.28-9.6Z"/>
        <path class="cls-1" d="m195.25,225.11h-90.49c13.22,7.99,28.7,12.6,45.25,12.6s32.03-4.6,45.25-12.6Z"/>
        <path class="cls-1" d="m70.35,186.7c1.53,3.32,3.27,6.52,5.19,9.6h148.92c1.92-3.08,3.66-6.29,5.19-9.6H70.35Z"/>
      </g>
      <g>
        <g>
          <rect class="cls-1" x="68.57" y="132.4" width="162.87" height="6.96"/>
          <path class="cls-1" d="m210.96,169.74s0-.02,0-.02h5.47v-3.02h15.01v-25.63H68.57v25.63h15.01v3.02h5.47s0,.02,0,.02c0,2.56,1.85,4.69,4.29,5.13h-27.45c.22.75.45,1.49.69,2.22h166.84c.24-.74.47-1.48.69-2.22h-27.44c2.44-.44,4.29-2.56,4.29-5.13Zm-115.76,5.13c2.44-.44,4.29-2.56,4.29-5.13,0,0,0-.02,0-.02h12.01s0,.02,0,.02c0,2.56,1.85,4.69,4.29,5.13h-20.59Zm22.45,0c2.44-.44,4.29-2.56,4.29-5.13,0,0,0-.02,0-.02h5.47v-3.02h45.19v3.02h5.47s0,.02,0,.02c0,2.56,1.85,4.69,4.29,5.13h-64.7Zm66.56,0c2.44-.44,4.29-2.56,4.29-5.13,0,0,0-.02,0-.02h12.01s0,.02,0,.02c0,2.56,1.85,4.69,4.29,5.13h-20.59Z"/>
          <path class="cls-1" d="m66.17,132.4h-2.1c-1.15,5.61-1.75,11.41-1.77,17.35v.51c.02,5.62.57,11.11,1.6,16.44h2.28v-34.3Z"/>
          <path class="cls-1" d="m235.94,132.4h-2.1v34.3h2.28c1.05-5.41,1.6-10.99,1.6-16.69,0-6.03-.61-11.91-1.78-17.6Z"/>
        </g>
        <g>
          <rect class="cls-4" x="130.55" y="145.22" width="9.56" height="9.56" rx="1.75" ry="1.75"/>
          <rect class="cls-4" x="115.91" y="145.22" width="9.56" height="9.56" rx="1.75" ry="1.75"/>
          <rect class="cls-4" x="86.63" y="145.22" width="9.56" height="9.56" rx="1.75" ry="1.75"/>
          <rect class="cls-4" x="71.99" y="145.22" width="9.56" height="9.56" rx="1.75" ry="1.75"/>
          <rect class="cls-4" x="218.39" y="145.22" width="9.56" height="9.56" rx="1.75" ry="1.75"/>
          <rect class="cls-4" x="203.75" y="145.22" width="9.56" height="9.56" rx="1.75" ry="1.75"/>
          <rect class="cls-4" x="189.11" y="145.22" width="9.56" height="9.56" rx="1.75" ry="1.75"/>
          <rect class="cls-4" x="145.19" y="145.22" width="9.56" height="9.56" rx="1.75" ry="1.75"/>
          <rect class="cls-4" x="101.27" y="145.22" width="9.56" height="9.56" rx="1.75" ry="1.75"/>
          <rect class="cls-4" x="174.47" y="145.22" width="9.56" height="9.56" rx="1.75" ry="1.75"/>
          <rect class="cls-4" x="159.83" y="145.22" width="9.56" height="9.56" rx="1.75" ry="1.75"/>
        </g>
      </g>
      <g>
        <path class="cls-6" d="m233.4,122.91c-11.44-35.14-44.49-60.61-83.4-60.61s-71.96,25.47-83.4,60.61h166.8Z"/>
        <polygon class="cls-3" points="230.99 122.91 157.63 73.32 150 78.48 215.73 122.91 230.99 122.91"/>
        <polygon class="cls-3" points="84.27 122.91 150 78.48 142.37 73.32 69.01 122.91 84.27 122.91"/>
        <polygon class="cls-2" points="215.73 122.91 150 78.48 84.27 122.91 215.73 122.91"/>
        <path class="cls-5" d="m233.42,122.91h-64.08l-9.58-39.92-.83-11.58h-2.39l-.83,11.58-5.71,29.93-5.71-29.93-.83-11.58h-2.39l-.83,11.58-9.58,39.92h-64.08c-.24.74-.47,1.48-.69,2.22h168.23c-.22-.75-.45-1.49-.69-2.22Zm-75.62-33.72l4.49,33.72h-8.35l3.86-33.72Zm-15.59,0l3.86,33.72h-8.35l4.49-33.72Z"/>
      </g>
    </g>
  </g>
  <path class="cls-1" d="m274.59,139.63v13.54c0,4.25-3.44,7.69-7.69,7.69s-7.69-3.44-7.69-7.69v-13.54h2.66v2.66h1.74v-2.66h2.33v2.66h1.76v-2.66h2.33v2.66h1.76v-2.66h2.81Z"/>
  <path class="cls-1" d="m40.79,139.63v13.54c0,4.25-3.44,7.69-7.69,7.69s-7.69-3.44-7.69-7.69v-13.54h2.66v2.66h1.74v-2.66h2.33v2.66h1.76v-2.66h2.33v2.66h1.76v-2.66h2.81Z"/>
</svg>