<svg width="48" height="48" viewBox="0 0 48 48" fill="none" xmlns="http://www.w3.org/2000/svg">
<rect width="48" height="48" fill="url(#paint0_linear_192_3495)"/>
<path d="M28.938 6H22.7878H3.19299V6.83391V7.25156H20.8588L2.50049 42H8.65066H28.2455V41.1661V40.7485H10.5797L28.938 6Z" fill="white"/>
<path d="M37.4431 36.5989C35.8404 36.5989 34.4381 36.304 33.2361 35.7142C32.0577 35.1243 31.1032 34.3221 30.3726 33.3076C29.6655 32.293 29.1942 31.1487 28.9585 29.8746H30.5494C30.9029 31.5026 31.6688 32.8003 32.8473 33.7676C34.0492 34.7114 35.5812 35.1833 37.4431 35.1833C38.8572 35.1833 40.0591 34.8648 41.049 34.2277C42.0389 33.5671 42.7931 32.6941 43.3116 31.6088C43.8536 30.4998 44.1247 29.2612 44.1247 27.8927C44.1247 26.5006 43.8536 25.2619 43.3116 24.1766C42.7695 23.0677 41.9917 22.2065 40.9783 21.5931C39.9884 20.9796 38.8336 20.6729 37.5138 20.6729C35.9111 20.6729 34.556 21.015 33.4482 21.6992C32.3405 22.3835 31.5039 23.2918 30.9382 24.4244H29.4534L31.5039 11.4004H43.9479V12.816H32.7766L31.221 22.0531C31.8103 21.2745 32.6469 20.6139 33.7311 20.0712C34.8388 19.5286 36.1232 19.2572 37.5845 19.2572C38.7158 19.2572 39.7645 19.4578 40.7308 19.8589C41.7207 20.26 42.5809 20.8498 43.3116 21.6285C44.0657 22.3835 44.655 23.2918 45.0792 24.3536C45.5034 25.3917 45.7155 26.5714 45.7155 27.8927C45.7155 29.0016 45.5388 30.087 45.1852 31.1487C44.8553 32.1868 44.3368 33.1188 43.6297 33.9446C42.9463 34.7468 42.086 35.3956 41.049 35.8911C40.0356 36.363 38.8336 36.5989 37.4431 36.5989Z" fill="white"/>
<defs>
<linearGradient id="paint0_linear_192_3495" x1="49.2944" y1="-0.986188" x2="-10.0956" y2="22.9297" gradientUnits="userSpaceOnUse">
<stop stop-color="#090912"/>
<stop offset="0.49" stop-color="#191921"/>
<stop offset="1" stop-color="#383840"/>
</linearGradient>
</defs>
</svg>
